<?xml version="1.0" encoding="UTF-8"?>
<svg version="1.1" xmlns="http://www.w3.org/2000/svg" viewBox="0 0 2466 1404" preserveAspectRatio="xMidYMid meet">
<path d="M0,0 L424,0 L427,5 L434,18 L440,26 L448,42 L452,48 L455,53 L462,66 L466,72 L470,80 L474,86 L478,94 L482,100 L485,105 L494,122 L500,131 L508,146 L515,157 L515,160 L517,160 L517,164 L519,164 L519,168 L521,168 L523,171 L523,174 L525,174 L525,178 L527,178 L529,181 L529,184 L531,184 L531,188 L533,188 L533,192 L535,192 L535,196 L537,196 L537,198 L539,198 L539,202 L541,202 L541,204 L543,204 L549,216 L549,218 L551,218 L553,222 L553,226 L555,226 L558,231 L565,244 L569,250 L572,255 L581,272 L587,281 L590,287 L594,295 L598,301 L601,306 L608,319 L612,325 L616,333 L622,341 L636,365 L651,391 L666,417 L681,443 L695,467 L710,493 L725,519 L740,545 L755,571 L769,595 L784,621 L799,647 L814,673 L828,697 L843,723 L858,749 L873,775 L888,801 L903,827 L917,851 L932,877 L947,903 L962,929 L977,955 L991,979 L1006,1005 L1021,1031 L1031,1048 L1031,1055 L1028,1060 L1023,1069 L1019,1075 L1013,1086 L1010,1092 L1008,1092 L1007,1096 L1006,1098 L1004,1098 L1003,1102 L1002,1106 L1000,1106 L999,1110 L998,1112 L996,1112 L996,1116 L994,1116 L993,1120 L992,1122 L990,1122 L990,1126 L988,1126 L987,1130 L984,1136 L982,1136 L981,1140 L977,1148 L973,1154 L969,1162 L965,1168 L961,1176 L957,1182 L953,1190 L949,1196 L946,1201 L942,1209 L937,1218 L933,1224 L924,1241 L920,1247 L917,1252 L910,1265 L906,1271 L903,1278 L901,1278 L899,1284 L895,1292 L893,1292 L891,1298 L889,1298 L888,1303 L885,1308 L883,1308 L883,1312 L881,1312 L881,1316 L879,1316 L878,1320 L873,1328 L871,1328 L871,1332 L869,1332 L869,1336 L867,1336 L866,1340 L864,1345 L862,1346 L859,1353 L854,1361 L849,1371 L845,1377 L842,1382 L835,1395 L831,1401 L830,1404 L416,1404 L412,1396 L408,1390 L404,1382 L400,1376 L394,1364 L391,1359 L385,1349 L379,1340 L379,1336 L377,1336 L377,1332 L375,1332 L371,1325 L371,1322 L369,1322 L369,1318 L367,1318 L367,1316 L365,1316 L365,1312 L363,1312 L363,1308 L361,1308 L359,1302 L357,1302 L355,1298 L355,1294 L351,1292 L345,1280 L341,1274 L338,1269 L329,1252 L325,1246 L322,1241 L315,1228 L311,1222 L307,1214 L302,1205 L296,1195 L293,1190 L284,1173 L278,1165 L272,1153 L272,1150 L270,1150 L264,1139 L260,1133 L260,1130 L258,1130 L258,1126 L256,1126 L252,1119 L252,1116 L250,1116 L250,1112 L248,1112 L244,1105 L244,1102 L242,1102 L242,1098 L240,1098 L240,1096 L238,1096 L238,1092 L236,1092 L236,1088 L233,1087 L224,1070 L218,1061 L214,1052 L209,1047 L194,1021 L179,995 L164,969 L150,945 L135,919 L121,895 L106,869 L92,845 L77,819 L63,795 L48,769 L34,745 L19,719 L7,698 L7,691 L5,691 L5,687 L3,687 L1,684 L1,681 L-1,681 L-5,674 L-5,671 L-7,671 L-7,667 L-9,667 L-9,663 L-11,663 L-13,660 L-13,657 L-15,657 L-15,653 L-17,653 L-21,646 L-21,643 L-23,643 L-25,637 L-27,637 L-29,633 L-29,629 L-31,629 L-34,624 L-41,611 L-45,605 L-51,594 L-54,588 L-58,582 L-61,577 L-68,564 L-72,558 L-76,550 L-80,544 L-84,536 L-88,530 L-91,525 L-98,512 L-102,506 L-105,501 L-114,484 L-118,478 L-121,473 L-128,460 L-132,454 L-137,445 L-139,441 L-139,438 L-141,438 L-144,432 L-146,431 L-150,423 L-151,418 L-153,418 L-157,410 L-159,408 L-159,404 L-161,404 L-163,398 L-165,398 L-165,394 L-167,394 L-171,386 L-171,384 L-173,384 L-179,372 L-183,366 L-187,358 L-191,352 L-194,347 L-197,342 L-197,337 L-192,328 L-188,322 L-184,314 L-181,309 L-179,309 L-178,304 L-174,298 L-170,290 L-166,284 L-165,281 L-163,281 L-163,279 L-161,279 L-161,275 L-159,275 L-158,270 L-157,267 L-155,267 L-153,261 L-151,261 L-151,257 L-149,257 L-148,253 L-147,251 L-145,251 L-145,247 L-143,247 L-142,242 L-136,233 L-130,221 L-125,212 L-119,204 L-113,192 L-109,186 L-105,178 L-101,172 L-97,164 L-93,158 L-90,153 L-81,136 L-75,128 L-67,112 L-63,106 L-60,101 L-53,88 L-47,78 L-38,61 L-35,56 L-33,56 L-31,50 L-27,42 L-25,42 L-24,37 L-21,36 L-21,32 L-19,32 L-18,28 L-17,26 L-15,26 L-15,22 L-13,22 L-12,18 L-9,12 L-7,12 L-7,8 L-5,8 L-4,4 Z " fill="currentColor" transform="translate(608,0)"/>
<path d="M0,0 L428,0 L429,4 L431,4 L437,15 L439,18 L439,21 L441,21 L448,35 L453,43 L453,45 L455,45 L457,49 L457,52 L459,52 L461,56 L461,59 L463,59 L466,65 L469,71 L471,72 L474,79 L480,90 L488,103 L493,112 L501,126 L508,137 L512,145 L512,147 L514,147 L520,159 L526,168 L532,179 L532,182 L534,182 L540,193 L542,196 L542,199 L546,201 L548,207 L550,207 L550,211 L552,211 L557,221 L563,231 L568,240 L568,242 L570,242 L576,254 L590,278 L598,292 L603,301 L607,307 L607,310 L609,310 L615,321 L615,324 L617,324 L623,336 L625,337 L625,341 L627,341 L631,349 L631,351 L633,351 L639,363 L639,365 L641,365 L647,377 L656,392 L667,412 L668,416 L670,416 L675,426 L681,436 L682,440 L684,440 L684,444 L686,444 L692,455 L698,465 L698,468 L700,468 L702,472 L702,475 L704,475 L710,486 L716,496 L722,507 L730,521 L730,523 L732,523 L738,535 L747,550 L758,570 L764,580 L773,596 L773,598 L775,598 L780,608 L787,619 L787,622 L789,622 L793,630 L793,633 L795,633 L801,644 L803,647 L803,650 L805,650 L810,660 L816,670 L817,673 L819,674 L821,678 L821,681 L823,681 L829,693 L843,717 L852,733 L860,747 L860,749 L862,749 L864,753 L864,756 L866,756 L871,766 L875,773 L882,784 L888,795 L892,802 L892,804 L894,804 L898,812 L898,816 L900,816 L905,826 L911,837 L914,840 L917,847 L927,864 L931,871 L931,874 L933,874 L942,890 L948,901 L954,911 L955,915 L957,915 L959,919 L959,922 L961,922 L963,926 L963,929 L965,929 L971,940 L977,950 L983,961 L987,967 L987,970 L989,970 L995,982 L995,984 L997,984 L1003,996 L1006,1001 L1012,1011 L1022,1029 L1030,1042 L1030,1045 L1032,1045 L1035,1054 L1028,1068 L1026,1068 L1024,1074 L1010,1098 L1005,1108 L1003,1108 L1002,1112 L1001,1115 L999,1115 L997,1121 L992,1130 L988,1136 L985,1143 L983,1143 L981,1149 L974,1160 L969,1170 L967,1170 L966,1174 L963,1179 L957,1191 L955,1191 L954,1195 L943,1214 L933,1231 L926,1243 L925,1246 L923,1246 L922,1251 L915,1262 L909,1273 L903,1283 L902,1286 L900,1286 L899,1290 L898,1293 L896,1293 L894,1299 L887,1310 L884,1317 L882,1317 L882,1321 L880,1321 L878,1327 L874,1334 L872,1334 L871,1338 L865,1349 L858,1361 L854,1369 L852,1369 L850,1375 L844,1385 L840,1392 L833,1404 L418,1404 L411,1392 L411,1389 L409,1389 L403,1378 L401,1375 L401,1372 L399,1372 L399,1369 L397,1369 L391,1357 L391,1355 L389,1355 L386,1349 L385,1345 L383,1345 L379,1337 L379,1334 L377,1334 L374,1328 L371,1323 L371,1321 L369,1321 L362,1307 L352,1290 L347,1281 L339,1267 L332,1256 L328,1248 L328,1246 L326,1246 L320,1234 L314,1225 L308,1214 L302,1204 L298,1197 L298,1194 L296,1194 L296,1191 L294,1191 L288,1179 L282,1170 L276,1159 L270,1148 L258,1127 L253,1119 L253,1116 L251,1116 L249,1112 L249,1109 L247,1109 L240,1096 L232,1082 L225,1070 L225,1068 L223,1068 L217,1056 L215,1054 L213,1048 L200,1026 L185,1000 L170,974 L155,948 L141,924 L126,898 L111,872 L96,846 L81,820 L66,794 L52,770 L37,744 L22,718 L7,692 L-8,666 L-22,642 L-37,616 L-52,590 L-67,564 L-81,540 L-96,514 L-111,488 L-126,462 L-141,436 L-156,410 L-170,386 L-185,360 L-196,341 L-195,337 L-188,324 L-186,324 L-185,320 L-180,310 L-178,310 L-177,306 L-171,295 L-166,286 L-158,273 L-154,266 L-153,262 L-150,259 L-145,250 L-141,242 L-139,242 L-138,238 L-130,225 L-124,214 L-118,204 L-117,201 L-115,201 L-114,197 L-113,194 L-111,194 L-110,190 L-109,187 L-107,187 L-105,181 L-96,166 L-90,155 L-83,143 L-78,134 L-71,123 L-68,116 L-66,116 L-66,112 L-63,109 L-57,98 L-52,88 L-50,88 L-49,84 L-42,72 L-38,64 L-36,64 L-35,60 L-27,47 L-21,36 L-14,24 L-10,16 L-8,16 L-7,12 L-6,9 L-4,9 L-3,5 Z " fill="currentColor" transform="translate(1429,0)"/>
<path d="M0,0 L407,0 L414,10 L428,35 L438,52 L452,76 L467,102 L482,128 L496,152 L511,178 L525,202 L540,228 L554,252 L569,278 L584,304 L598,328 L612,352 L611,358 L606,367 L602,373 L598,381 L594,387 L591,392 L582,409 L576,417 L570,429 L567,434 L565,434 L564,439 L563,442 L561,442 L559,448 L555,456 L553,456 L551,462 L549,462 L548,467 L544,475 L542,475 L541,480 L537,486 L536,489 L533,491 L532,495 L530,495 L529,499 L524,509 L522,509 L521,513 L518,518 L516,523 L514,523 L513,527 L510,532 L504,543 L502,543 L501,547 L495,559 L489,567 L481,583 L478,588 L475,593 L471,599 L467,607 L461,617 L452,634 L446,642 L438,658 L434,664 L433,667 L431,667 L429,673 L425,681 L423,681 L421,687 L419,687 L418,692 L415,697 L413,697 L413,701 L411,701 L410,706 L-3,706 L-10,693 L-14,687 L-17,682 L-26,665 L-30,659 L-33,654 L-40,641 L-46,633 L-52,621 L-52,618 L-54,618 L-56,613 L-62,605 L-68,593 L-68,590 L-70,590 L-72,585 L-79,575 L-80,570 L-82,570 L-85,564 L-88,558 L-91,555 L-91,551 L-93,551 L-97,543 L-99,537 L-102,536 L-103,531 L-105,531 L-105,527 L-107,527 L-113,515 L-115,513 L-115,509 L-117,509 L-120,504 L-127,491 L-127,489 L-129,489 L-135,477 L-139,471 L-143,463 L-149,455 L-157,439 L-161,433 L-164,428 L-171,415 L-174,410 L-179,401 L-184,392 L-190,382 L-194,376 L-198,368 L-198,365 L-200,365 L-204,358 L-204,351 L-201,348 L-195,336 L-189,326 L-185,320 L-179,308 L-175,302 L-168,289 L-164,283 L-160,275 L-155,267 L-153,262 L-151,262 L-149,256 L-147,256 L-146,251 L-143,246 L-141,246 L-141,242 L-139,242 L-138,237 L-133,228 L-131,228 L-131,226 L-129,226 L-129,222 L-127,222 L-127,218 L-125,218 L-125,214 L-123,214 L-122,210 L-119,205 L-115,198 L-113,198 L-113,194 L-111,194 L-110,190 L-106,182 L-103,177 L-100,172 L-95,163 L-89,153 L-83,143 L-77,131 L-71,123 L-63,107 L-59,101 L-56,96 L-49,83 L-45,77 L-42,72 L-33,55 L-30,50 L-28,50 L-27,45 L-23,39 L-18,28 L-16,28 L-14,22 L-12,22 L-12,20 L-10,20 L-9,15 L-6,8 L-4,8 L-3,3 Z " fill="currentColor" transform="translate(204,698)"/>
</svg>
